<svg xmlns="http://www.w3.org/2000/svg" width="20.317" height="19.262" viewBox="0 0 20.317 19.262"><defs><style>.a{fill:#707070;}</style></defs><path class="a" d="M147.691,156.964a3.606,3.606,0,0,0,.626-1.987c0-3.177-4.464-5.644-10.159-5.644S128,151.8,128,154.978a3.629,3.629,0,0,0,.632,1.987,3.578,3.578,0,0,0-.632,1.964,3.618,3.618,0,0,0,.632,1.987,3.6,3.6,0,0,0-.632,2.009c0,3.183,4.464,5.672,10.159,5.672s10.159-2.489,10.159-5.672a3.652,3.652,0,0,0-.626-1.987,3.465,3.465,0,0,0,0-3.951Zm-18.562,1.964a2.376,2.376,0,0,1,.271-1.067c1.75,1.693,4.978,2.777,8.759,2.777s7.015-1.129,8.765-2.777a2.365,2.365,0,0,1,.265,1.067c0,2.466-4.137,4.549-9.03,4.549S129.129,161.417,129.129,158.928Zm9.03-8.465c4.893,0,9.03,2.054,9.03,4.515s-4.137,4.549-9.03,4.549-9.03-2.077-9.03-4.549S133.266,150.463,138.159,150.463Zm0,17.033c-4.893,0-9.03-2.082-9.03-4.543a2.376,2.376,0,0,1,.271-1.067c1.75,1.693,4.978,2.771,8.759,2.771s7.015-1.129,8.765-2.777a2.387,2.387,0,0,1,.265,1.072c0,2.432-4.137,4.515-9.03,4.515Z" transform="translate(-128 -149.334)"/></svg>