<svg xmlns="http://www.w3.org/2000/svg" width="30" height="30" viewBox="0 0 30 30"><defs><style>.a{fill:#f3ba2f;}.b{fill:#fff;}</style></defs><g transform="translate(0 0)"><path class="a" d="M79.35,78.54m-15,0a15,15,0,1,0,15-15A15,15,0,0,0,64.35,78.54Z" transform="translate(-64.35 -63.54)"/><path class="b" d="M431.856,433.713l2.656-2.656,2.656,2.656-2.656,2.656Z" transform="translate(-419.513 -418.713)"/><path class="b" d="M178.346,171.418l-4.409,4.409,2.689,2.689,4.409-4.409,4.409,4.409,2.689-2.689-4.409-4.409-2.689-2.689Zm5.377,17.636,4.409-4.409-2.689-2.689-4.409,4.409-4.409-4.409-2.689,2.689,4.409,4.409,2.689,2.689Zm-14.2-8.818,2.689-2.689,2.689,2.689-2.689,2.689Zm17.636,0,2.689-2.689,2.689,2.689-2.689,2.689Z" transform="translate(-166.035 -165.237)"/></g></svg>