<svg xmlns="http://www.w3.org/2000/svg" width="28.167" height="28.167" viewBox="0 0 28.167 28.167"><defs><style>.a{fill:#f0b90b;}.b{fill:#fff;}</style></defs><g transform="translate(0 0)"><circle class="a" cx="14.083" cy="14.083" r="14.083" transform="translate(0 0)"/><path class="b" d="M22.927,18.666l4.225-2.6,4.225,2.6-1.553.961-2.672-1.64-2.671,1.641Zm8.45,3.286-1.553-.961-2.672,1.637-2.671-1.641-1.554.961v1.923L25.6,25.512V28.8l1.554.957,1.553-.961V25.507l2.672-1.636Zm0,5.2V25.23l-1.557.96v1.925Zm1.1.68-2.671,1.641V31.4l4.225-2.6V23.589l-1.557.959Zm-1.553-7.525,1.553.961v1.923l1.553-.961V20.307l-1.553-.961ZM25.6,30.169v1.923l1.552.961,1.553-.961V30.169l-1.553.961Zm-2.673-3.017,1.552.963V26.191l-1.552-.96ZM25.6,20.307l1.554.961,1.553-.961-1.553-.961Zm-3.773.961,1.553-.961-1.553-.961-1.553.961V22.23l1.553.961Zm0,3.286-1.553-.961v5.2L24.5,31.4V29.473l-2.673-1.639Z" transform="translate(-13.134 -10.408)"/></g></svg>