<svg xmlns="http://www.w3.org/2000/svg" width="18" height="18.001" viewBox="0 0 18 18.001"><defs><style>.a{opacity:0.703;}.b,.c{fill:#21c17a;}.b{opacity:0;}</style></defs><g class="a" transform="translate(-7 -319.999)"><rect class="b" width="18" height="18" transform="translate(7 319.999)"/><g transform="translate(7 320)"><path class="c" d="M14.022,18H2.853A2.836,2.836,0,0,1,0,15.13V2.872A2.868,2.868,0,0,1,2.853,0H14.022a2.867,2.867,0,0,1,2.854,2.871V4.914a.851.851,0,0,1-.823.827.745.745,0,0,1-.691-.827V2.723A1.412,1.412,0,0,0,14.022,1.4H2.853A1.669,1.669,0,0,0,1.4,2.872V15.243a1.428,1.428,0,0,0,1.351,1.331h11.13A1.382,1.382,0,0,0,15.231,15.3V13.136a.822.822,0,1,1,1.643,0v2.043A2.826,2.826,0,0,1,14.022,18" transform="translate(0)"/><path class="c" d="M296.46,356.087c-.359,0-.811-.024-.922-.5a1.394,1.394,0,0,1,.494-1.148l2.93-2.854a.771.771,0,0,1,1.1,0,.871.871,0,0,1,.051,1.181l-1.793,1.744h9.787a.814.814,0,0,1,.88.76.83.83,0,0,1-.88.821Z" transform="translate(-291.029 -345.26)"/><path class="c" d="M630.161,378.092m.821,0h5.633a.726.726,0,0,1,.821.821h0a.726.726,0,0,1-.821.821h-5.633a.726.726,0,0,1-.821-.821h0A.726.726,0,0,1,630.982,378.092Z" transform="translate(-619.437 -371.452)"/></g></g></svg>