<svg xmlns="http://www.w3.org/2000/svg" width="53.912" height="58.607" viewBox="0 0 53.912 58.607"><defs><style>.a{opacity:0.31;}.b{fill:#f2b60a;}.b,.c{fill-rule:evenodd;}.c{fill:#feffde;}.d{fill:none;stroke:#f2b60a;stroke-width:2.614px;}</style></defs><g transform="translate(-83 -38.9)"><g class="a" transform="translate(83 38.9)"><path class="b" d="M94.827,38.9h31.916l.967.134.826.346.72.558.558.72.346.826.134.967v51.5l-.134.967-.346.826-.558.72-.72.558-.826.346-.967.134H86.552l-.967-.134-.826-.346-.72-.558-.558-.72-.346-.826L83,93.955V68.2h0V53.552Z" transform="translate(-83 -38.9)"/><path class="c" d="M96.611,43.93h29.826l.7.141.558.381.381.558.141.7V93.661l-.141.692-.381.558-.558.381-.7.141h-36.6l-.7-.141-.558-.381-.374-.558-.141-.692V55.235h0Z" transform="translate(-84.487 -40.378)"/><path class="b" d="M94.827,38.9V50l-.141.967-.346.826-.558.72-.72.558-.826.346-.96.134H83Z" transform="translate(-83 -38.9)"/><path class="b" d="M94.889,61.54h29.466l.692.141.558.374.381.565.141.692h0l-.141.7-.381.558-.558.381-.692.141H94.889l-.7-.141-.558-.381-.381-.558-.141-.7h0l.141-.692.381-.565.558-.374Z" transform="translate(-85.971 -45.554)"/><path class="b" d="M94.889,77.89h29.466l.692.141.558.374.381.558.141.7h0l-.141.7-.381.558-.558.381-.692.141H94.889l-.7-.141-.558-.381-.381-.558-.141-.7h0l.141-.7.381-.558.558-.374Z" transform="translate(-85.971 -50.359)"/><path class="b" d="M94.889,94.23h22.574l.692.141.558.381.381.558.141.7h0l-.141.7-.381.558-.558.374-.692.141H94.889l-.7-.141-.558-.374-.381-.558-.141-.7h0l.141-.7.381-.558.558-.381Z" transform="translate(-85.971 -55.161)"/></g><g transform="translate(113.912 69.25)"><path class="d" d="M139.431,108.338l1.167,1.405.866,1.5.575,1.609.292,1.688.009,1.671-.283,1.679L141.5,119.5,140.651,121l-1.158,1.4-1.4,1.158-1.494.849-1.609.557-1.68.283-1.671-.009-1.688-.292-1.609-.575-1.5-.866-1.405-1.167-1.167-1.405-.857-1.5-.583-1.609-.292-1.679-.009-1.679.283-1.679.566-1.609.849-1.485,1.158-1.4,1.4-1.158,1.485-.849,1.609-.566,1.68-.283,1.679.009,1.679.3,1.609.575,1.5.857Z" transform="translate(-122.53 -105.43)"/><path class="b" d="M143.207,126.116h0l.389-.256.424-.08.424.08.38.256,2.731,2.723.247.38.088.424-.088.433-.247.38h0l-.38.248-.433.088-.424-.088-.38-.248-2.731-2.731-.247-.38-.08-.424.08-.424Z" transform="translate(-124.892 -107.792)"/></g></g></svg>