<svg xmlns="http://www.w3.org/2000/svg" width="14.609" height="18" viewBox="0 0 14.609 18"><defs><style>.a{fill:#a2a2a2;}</style></defs><g transform="translate(-163 -82)"><path class="a" d="M177.574,82.984h-3.665a.037.037,0,0,1-.036-.036v-.913a.037.037,0,0,0-.036-.036H172.9a.037.037,0,0,0-.036.036v.913a.037.037,0,0,1-.036.036h-5.057a.037.037,0,0,1-.036-.036v-.913a.037.037,0,0,0-.036-.036h-.933a.037.037,0,0,0-.036.036v.913a.037.037,0,0,1-.036.036h-3.665a.037.037,0,0,0-.036.036V99.964a.037.037,0,0,0,.036.036h14.538a.037.037,0,0,0,.036-.036V83.019A.037.037,0,0,0,177.574,82.984Zm-10.838,1.04v.787a.037.037,0,0,0,.036.036h.933a.037.037,0,0,0,.036-.036v-.787a.037.037,0,0,1,.036-.036h5.057a.037.037,0,0,1,.036.036v.787a.037.037,0,0,0,.036.036h.933a.037.037,0,0,0,.036-.036v-.787a.037.037,0,0,1,.036-.036h2.66a.037.037,0,0,1,.036.036v1.561a.037.037,0,0,1-.036.036H164.04a.037.037,0,0,1-.036-.036V84.024a.037.037,0,0,1,.036-.036h2.66A.037.037,0,0,1,166.736,84.024ZM176.569,99H164.04A.037.037,0,0,1,164,98.96v-12.3a.037.037,0,0,1,.036-.036h12.529a.037.037,0,0,1,.036.036v12.3A.037.037,0,0,1,176.569,99Z"/><path class="a" d="M307.761,384.277h1a.039.039,0,0,0,.038-.038v-1a.039.039,0,0,0-.038-.038h-1a.039.039,0,0,0-.038.038v1A.038.038,0,0,0,307.761,384.277Zm2.237,0h5.576a.039.039,0,0,0,.038-.038v-1a.039.039,0,0,0-.038-.038H310a.039.039,0,0,0-.038.038v1A.038.038,0,0,0,310,384.277Zm-2.259,2.488h1a.039.039,0,0,0,.038-.038v-1a.039.039,0,0,0-.038-.038h-1a.039.039,0,0,0-.038.038v1A.039.039,0,0,0,307.738,386.765Zm2.244,0h5.576a.039.039,0,0,0,.038-.038v-1a.039.039,0,0,0-.038-.038h-5.576a.039.039,0,0,0-.038.038v1A.039.039,0,0,0,309.982,386.765Z" transform="translate(-141.894 -294.999)"/></g></svg>