<svg xmlns="http://www.w3.org/2000/svg" width="22" height="22.003" viewBox="0 0 22 22.003"><defs><style>.a{fill:#707070;}</style></defs><path class="a" d="M85.063,84a11,11,0,0,0-8.157-18.219,1.023,1.023,0,0,0-.3,0A10.994,10.994,0,0,0,65.776,76.626a1.022,1.022,0,0,0,0,.252A11,11,0,0,0,84.547,84.55q.227-.227.438-.465c.012-.011.025-.023.036-.036A.505.505,0,0,0,85.063,84Zm-18.268-6.74h4.62a21.034,21.034,0,0,0,.555,4.487,10.152,10.152,0,0,0-2.983,1.279A9.939,9.939,0,0,1,66.795,77.257Zm2.179-6.718a10.043,10.043,0,0,0,2.99,1.288,21.025,21.025,0,0,0-.548,4.421H66.8A9.938,9.938,0,0,1,68.974,70.539Zm17.771,5.709H82.126a21.027,21.027,0,0,0-.548-4.42,10.166,10.166,0,0,0,3-1.282A9.938,9.938,0,0,1,86.745,76.248Zm-5.628,0H77.26V72.4a19.167,19.167,0,0,0,3.333-.346A20.011,20.011,0,0,1,81.117,76.248ZM77.26,71.395V66.856a4.607,4.607,0,0,1,2.487,2.711,12.4,12.4,0,0,1,.578,1.516A18.241,18.241,0,0,1,77.26,71.395Zm-1.009-4.53v4.529a18.006,18.006,0,0,1-3.034-.315,12.4,12.4,0,0,1,.577-1.512A4.652,4.652,0,0,1,76.252,66.865Zm0,5.539v3.845H72.425a20.009,20.009,0,0,1,.523-4.191A19.076,19.076,0,0,0,76.252,72.4Zm-3.828,4.854h3.828v3.91a19.107,19.107,0,0,0-3.3.348A20.018,20.018,0,0,1,72.424,77.257Zm3.828,4.919v4.507a4.652,4.652,0,0,1-2.457-2.7,12.371,12.371,0,0,1-.571-1.492A18.185,18.185,0,0,1,76.252,82.176Zm1.009,4.516V82.175a18.078,18.078,0,0,1,3.058.312,12.379,12.379,0,0,1-.571,1.495A4.607,4.607,0,0,1,77.26,86.692Zm0-5.526V77.257h3.857a20.024,20.024,0,0,1-.528,4.251A19.153,19.153,0,0,0,77.26,81.166Zm4.866-3.908h4.62a9.938,9.938,0,0,1-2.184,5.757,10.114,10.114,0,0,0-2.989-1.278A21.042,21.042,0,0,0,82.127,77.257ZM83.9,69.784a9.454,9.454,0,0,1-2.584,1.072,10.065,10.065,0,0,0-1.924-3.72A9.994,9.994,0,0,1,83.9,69.784Zm-9.746-2.648a10.058,10.058,0,0,0-1.921,3.713,9.526,9.526,0,0,1-2.577-1.074A9.994,9.994,0,0,1,74.152,67.135Zm-4.487,16.65a9.444,9.444,0,0,1,2.571-1.068,10.04,10.04,0,0,0,1.916,3.7A9.993,9.993,0,0,1,69.665,83.785Zm9.725,2.628a10.043,10.043,0,0,0,1.917-3.7,9.61,9.61,0,0,1,2.576,1.065A9.994,9.994,0,0,1,79.39,86.413Z" transform="translate(-65.768 -65.768)"/></svg>