<svg xmlns="http://www.w3.org/2000/svg" xmlns:xlink="http://www.w3.org/1999/xlink" width="120.156" height="34.542" viewBox="0 0 120.156 34.542"><defs><style>.a,.b,.d{fill-rule:evenodd;}.a{fill:url(#a);}.b,.c{fill:#a2a2a2;}.c{stroke:rgba(0,0,0,0);stroke-miterlimit:10;}.d{fill:#f8c847;}</style><linearGradient id="a" x1="0.5" x2="0.5" y2="1" gradientUnits="objectBoundingBox"><stop offset="0" stop-color="#f8d151"/><stop offset="1" stop-color="#f99f1a"/></linearGradient></defs><g transform="translate(-24 -18)"><path class="a" d="M60.937,201.889l6.752-3.9L82.3,206.426l14.611-8.436,6.752,3.9L82.3,214.223,60.937,201.889Zm6.752-4.584L60,201.745v25.683l7.654,4.419L82.3,223.391l14.646,8.456,7.654-4.419V201.745l-7.689-4.44L82.3,205.741,67.689,197.3ZM96.66,222.514v-15.9l-13.766,7.948,13.766,7.948Zm-14.954-7.948-13.767-7.948v15.9Z" transform="translate(-36 -179.305)"/><g transform="translate(0 1.237)"><path class="b" d="M257.278,231.013a9.435,9.435,0,0,1-3.018-.413,3.872,3.872,0,0,1-1.8-1.149,2.583,2.583,0,0,1-.6-1.675v-.259h2.233v.227a1.245,1.245,0,0,0,.76,1.133,4.657,4.657,0,0,0,2.152.4,5.044,5.044,0,0,0,2.411-.461,1.442,1.442,0,0,0,.825-1.319,1.169,1.169,0,0,0-.364-.922,2.028,2.028,0,0,0-.971-.445,6.732,6.732,0,0,0-1.319-.121h-1.845v-1.667h1.715a4.629,4.629,0,0,0,1.173-.146,2.059,2.059,0,0,0,.922-.494,1.207,1.207,0,0,0,.364-.914,1.136,1.136,0,0,0-.348-.833,2.26,2.26,0,0,0-.955-.534,4.718,4.718,0,0,0-1.384-.186,4.991,4.991,0,0,0-1.4.186,2.749,2.749,0,0,0-1.028.518,1,1,0,0,0-.388.785v.211h-2.169v-.34a2.292,2.292,0,0,1,.623-1.57,4.25,4.25,0,0,1,1.78-1.108,8.17,8.17,0,0,1,2.743-.413,7.663,7.663,0,0,1,2.549.38,3.893,3.893,0,0,1,1.667,1.052,2.314,2.314,0,0,1,.591,1.578,2.261,2.261,0,0,1-.3,1.181,2.516,2.516,0,0,1-.793.825,3.8,3.8,0,0,1-1.076.485v.065a3.69,3.69,0,0,1,1.837.825,2.436,2.436,0,0,1,.688,1.909,2.492,2.492,0,0,1-.623,1.667,4.028,4.028,0,0,1-1.8,1.133A8.819,8.819,0,0,1,257.278,231.013Z" transform="translate(-156.059 -187.744)"/><path class="b" d="M295.528,231.316V220.2h5.923a8.717,8.717,0,0,1,3.5.639,4.9,4.9,0,0,1,2.249,1.877,6.288,6.288,0,0,1,0,6.084,4.9,4.9,0,0,1-2.249,1.877,8.717,8.717,0,0,1-3.5.639Zm2.46-2.055h3.334a6.082,6.082,0,0,0,1.643-.21,3.991,3.991,0,0,0,1.311-.623,2.822,2.822,0,0,0,.866-1.036,3.234,3.234,0,0,0,.307-1.448v-.372a3.234,3.234,0,0,0-.307-1.448,2.825,2.825,0,0,0-.866-1.036,3.991,3.991,0,0,0-1.311-.623,6.082,6.082,0,0,0-1.643-.21h-3.334Z" transform="translate(-187.471 -188.242)"/><path class="b" d="M349.693,237.647a7.614,7.614,0,0,1-2.84-.477,3.837,3.837,0,0,1-1.837-1.465,4.49,4.49,0,0,1-.647-2.508,4.553,4.553,0,0,1,.631-2.484,3.822,3.822,0,0,1,1.812-1.489,8.348,8.348,0,0,1,5.656,0,3.651,3.651,0,0,1,1.74,1.44,4.317,4.317,0,0,1,.583,2.306v.776h-8.075a2.2,2.2,0,0,0,.429,1.271,2.107,2.107,0,0,0,1.052.688,5.241,5.241,0,0,0,1.561.21,4.527,4.527,0,0,0,.8-.081,4.575,4.575,0,0,0,.858-.243,2.237,2.237,0,0,0,.7-.429,1.037,1.037,0,0,0,.34-.655h2.266a2.4,2.4,0,0,1-.332,1.222,3.036,3.036,0,0,1-.979,1,5.227,5.227,0,0,1-1.586.672,8.562,8.562,0,0,1-2.136.243Zm-2.978-5.389h5.713a1.463,1.463,0,0,0-.218-.809,1.688,1.688,0,0,0-.607-.558,3.1,3.1,0,0,0-.89-.324,5.2,5.2,0,0,0-1.068-.105,4.858,4.858,0,0,0-1.465.2,2.27,2.27,0,0,0-1.011.607A1.78,1.78,0,0,0,346.716,232.258Z" transform="translate(-222.601 -194.378)"/><path class="b" d="M196.413,219.52v10.146l2.349,1.356,4.5-2.6,4.5,2.6,2.349-1.356V219.52l-2.437,1.407v7.231l-4.408-2.545-4.408,2.545v-7.231Z" transform="translate(-116.18 -187.753)"/><path class="c" d="M0,8.528,4.006,4.264,0,0H2.867L10.88,8.528H8.012L5.44,5.79,2.867,8.528Z" transform="translate(132.12 34.547)"/><path class="d" d="M407.008,229.422h-2.867l-2.2,2.345,1.434,1.526Z" transform="translate(-264.009 -194.876)"/></g></g></svg>