<svg xmlns="http://www.w3.org/2000/svg" width="23.918" height="17.586" viewBox="0 0 23.918 17.586"><defs><style>.a{fill:#707070;}</style></defs><g transform="translate(-64 -182.582)"><path class="a" d="M87.475,208.713H64.443a.443.443,0,1,1,0-.886H87.475a.443.443,0,0,1,0,.886ZM67.62,207.279a.444.444,0,0,1-.443-.443v-5.857a.443.443,0,0,1,.886,0v5.854A.444.444,0,0,1,67.62,207.279Zm5.734,0a.444.444,0,0,1-.443-.443V198.58a.443.443,0,0,1,.886,0v8.254A.443.443,0,0,1,73.354,207.279Zm5.734,0a.444.444,0,0,1-.443-.443v-6.182a.443.443,0,1,1,.886,0v6.18A.443.443,0,0,1,79.087,207.279Zm5.734,0a.444.444,0,0,1-.443-.443V194.474a.443.443,0,1,1,.886,0v12.359A.444.444,0,0,1,84.821,207.279Zm-17.2-8.254a.443.443,0,0,1-.24-.817l9.343-6.017a.438.438,0,0,1,.344-.059.443.443,0,0,1,.28.208l1.188,2.026,4.84-2.942a.444.444,0,0,1,.459.761l-5.224,3.177a.444.444,0,0,1-.339.051.455.455,0,0,1-.275-.206l-1.183-2.021-8.953,5.766A.443.443,0,0,1,67.62,199.025Z" transform="translate(0 -8.545)"/><path class="a" d="M724.387,185.1a.463.463,0,0,1-.1-.013.447.447,0,0,1-.328-.537l.224-.926-1.094-.16a.444.444,0,0,1,.131-.878l1.575.23a.446.446,0,0,1,.368.545l-.339,1.4A.446.446,0,0,1,724.387,185.1Z" transform="translate(-641.122)"/></g></svg>