<svg xmlns="http://www.w3.org/2000/svg" xmlns:xlink="http://www.w3.org/1999/xlink" width="10" height="10" viewBox="0 0 10 10"><defs><style>.a,.c{fill:#333;}.a{stroke:#707070;}.b{clip-path:url(#a);}</style><clipPath id="a"><rect class="a" width="10" height="10" transform="translate(0 0.333)"/></clipPath></defs><g class="b" transform="translate(-0.333 10) rotate(-90)"><g transform="translate(0 2)"><path class="c" d="M4.194.235A.554.554,0,0,1,4.669.007c.168-.03.326.109.456.227l4.031,4.3a.586.586,0,0,1,0,.791.507.507,0,0,1-.745,0L4.66,1.233.9,5.327a.507.507,0,0,1-.745,0,.586.586,0,0,1,0-.791Z" transform="translate(9.31 5.49) rotate(180)"/></g></g></svg>