<svg xmlns="http://www.w3.org/2000/svg" width="30" height="30" viewBox="0 0 30 30"><defs><style>.a{fill:#00d965;}.b{fill:#fff;}</style></defs><g transform="translate(0 0)"><circle class="a" cx="15" cy="15" r="15" transform="translate(0 0)"/><g transform="translate(7.629 7.579)"><path class="b" d="M1086.068,1234.734a7.217,7.217,0,1,0,14.273-1.528,3.844,3.844,0,0,0-4.958-2.831l-.03.01q-1,.329-1.981.728-.662.267-1.318.567a3.057,3.057,0,0,1,4.01,1.525l0,0a.5.5,0,0,0,.528.286q.152-.023.3-.041a.867.867,0,0,1,.971.822v.009h0v.008a4.555,4.555,0,0,1-.119,1.237h0a4.577,4.577,0,0,1-2.242,2.963l-.013.028c-.1.041-.2.084-.3.129a4.589,4.589,0,0,1-5.652-1.512,4.643,4.643,0,0,1-.43-.746,4.589,4.589,0,0,1,3.95-6.495q-.1-.453-.176-.908c0-.006,0-.012,0-.018a1.426,1.426,0,0,0-1.847-1.1A7.22,7.22,0,0,0,1086.068,1234.734Z" transform="translate(-1086.068 -1227.803)"/><path class="b" d="M1150.682,1288.289a2,2,0,1,0,1.234-2.55A2,2,0,0,0,1150.682,1288.289Z" transform="translate(-1145.357 -1280.954)"/></g></g></svg>