<svg xmlns="http://www.w3.org/2000/svg" width="15.731" height="15.731" viewBox="0 0 15.731 15.731"><defs><style>.a{fill:#a2a2a2;}</style></defs><path class="a" d="M64.177,54.272a7.6,7.6,0,0,1,3.067.624,8.131,8.131,0,0,1,2.5,1.687,7.826,7.826,0,0,1,1.687,2.5,7.931,7.931,0,0,1,0,6.125,7.914,7.914,0,0,1-4.192,4.183,7.932,7.932,0,0,1-6.125,0A7.938,7.938,0,0,1,56.935,65.2a7.932,7.932,0,0,1,0-6.125,7.826,7.826,0,0,1,1.687-2.5,8.161,8.161,0,0,1,2.5-1.687,7.534,7.534,0,0,1,3.058-.624Zm.018,13.253a1.038,1.038,0,0,0,.765-.308,1.017,1.017,0,0,0,.308-.747,1.072,1.072,0,1,0-2.144,0,1.017,1.017,0,0,0,.308.747A1.038,1.038,0,0,0,64.194,67.525Zm.9-4.324a.783.783,0,0,1,.352-.6q.369-.316.826-.7a6.249,6.249,0,0,0,.844-.87,1.913,1.913,0,0,0,.422-1.116,3.825,3.825,0,0,0-.141-1.283,2.514,2.514,0,0,0-.58-1.028,2.852,2.852,0,0,0-1.046-.685,4.056,4.056,0,0,0-1.5-.255,3.777,3.777,0,0,0-1.784.378,3.715,3.715,0,0,0-1.151.914,3.267,3.267,0,0,0-.615,1.107,2.918,2.918,0,0,0-.158.958.835.835,0,0,0,.29.668.99.99,0,0,0,.589.22.942.942,0,0,0,.58-.176.614.614,0,0,0,.264-.536,1.371,1.371,0,0,1,.132-.519,2.487,2.487,0,0,1,.36-.589,2.067,2.067,0,0,1,.554-.475,1.4,1.4,0,0,1,.729-.193,1.913,1.913,0,0,1,1.266.4,1.145,1.145,0,0,1,.439.993.956.956,0,0,1-.176.554,2.665,2.665,0,0,1-.448.492q-.272.237-.58.475t-.58.492a2.7,2.7,0,0,0-.457.554,1.346,1.346,0,0,0-.2.65l.018.668a.7.7,0,0,0,.246.5.961.961,0,0,0,.65.255.908.908,0,0,0,.642-.264.726.726,0,0,0,.22-.562Z" transform="translate(-56.32 -54.272)"/></svg>