<svg xmlns="http://www.w3.org/2000/svg" width="18" height="18" viewBox="0 0 18 18"><defs><style>.a{opacity:0.702;}.b{fill:#d9534f;}</style></defs><g class="a" transform="translate(0)"><path class="b" d="M14.022,18H2.853A2.836,2.836,0,0,1,0,15.13V2.872A2.868,2.868,0,0,1,2.853,0H14.022a2.867,2.867,0,0,1,2.854,2.871V4.914a.851.851,0,0,1-.823.827.745.745,0,0,1-.691-.827V2.723A1.412,1.412,0,0,0,14.022,1.4H2.853A1.669,1.669,0,0,0,1.4,2.872V15.243a1.428,1.428,0,0,0,1.351,1.331h11.13A1.382,1.382,0,0,0,15.231,15.3V13.136a.822.822,0,1,1,1.643,0v2.043A2.826,2.826,0,0,1,14.022,18" transform="translate(0)"/><g transform="translate(4.493 6.09)"><path class="b" d="M308.051,356.087c.359,0,.811-.024.922-.5a1.393,1.393,0,0,0-.494-1.148l-2.93-2.854a.772.772,0,0,0-1.1,0,.87.87,0,0,0-.051,1.181l1.793,1.744H296.4a.814.814,0,0,0-.88.76.83.83,0,0,0,.88.821Z" transform="translate(-295.482 -351.35)"/><path class="b" d="M637.436,378.092m-.821,0h-5.632a.726.726,0,0,0-.821.821h0a.726.726,0,0,0,.821.821h5.632a.726.726,0,0,0,.821-.821h0A.726.726,0,0,0,636.615,378.092Z" transform="translate(-630.161 -377.542)"/></g></g></svg>