<svg xmlns="http://www.w3.org/2000/svg" width="30" height="30" viewBox="0 0 30 30"><defs><style>.a{fill:#1ba27a;}.b{fill:#fff;}</style></defs><g transform="translate(0 0)"><path class="a" d="M34.174,17.369a15,15,0,1,1-15-15,15,15,0,0,1,15,15" transform="translate(-4.174 -2.369)"/><path class="b" d="M284.7,259.266H270.331v3.47h5.451v5.1h3.47v-5.1H284.7Z" transform="translate(-262.578 -251.737)"/><path class="b" d="M213.887,454.937c-4.422,0-8.007-.714-8.007-1.594s3.585-1.594,8.007-1.594,8.007.714,8.007,1.594-3.585,1.594-8.007,1.594m8.99-1.328c0-1.135-4.025-2.056-8.99-2.056s-8.99.92-8.99,2.056c0,1,3.121,1.833,7.257,2.017v7.321h3.4v-7.318c4.168-.179,7.322-1.015,7.322-2.02" transform="translate(-198.917 -438.422)"/></g></svg>