<svg xmlns="http://www.w3.org/2000/svg" width="63" height="63" viewBox="0 0 63 63"><defs><style>.a{fill:#d5d5d5;}.b{fill:#fff;}</style></defs><path class="a" d="M59.689,89.341A29.652,29.652,0,1,1,89.341,59.689,29.652,29.652,0,0,1,59.689,89.341Z" transform="translate(-28.189 -28.189)"/><path class="a" d="M31.5,3.7A27.8,27.8,0,1,1,3.7,31.5,27.8,27.8,0,0,1,31.5,3.7m0-3.7A31.5,31.5,0,1,0,63,31.5,31.5,31.5,0,0,0,31.5,0Z"/><path class="b" d="M254.265,239.651a8.971,8.971,0,0,0-.672-.84,5.354,5.354,0,0,0-.735-.693l-.651-.5a2.1,2.1,0,0,0-.5-.294l-.1-.021-3.591-2.352a15.226,15.226,0,0,0-1.68-.945l-4.851-2.352v-2.31a9.324,9.324,0,0,0,3.255-3.276,11,11,0,0,0,1.239-4.536v-1.764a15.121,15.121,0,0,0-.168-3.15l-.147-1.008a10.227,10.227,0,0,0-2.877-6.993,8.631,8.631,0,0,0-7.14-2.709A7.329,7.329,0,0,0,230.7,208.7a13.041,13.041,0,0,0-2.835,6.783s-.189,3.234-.168,3.633l.168,2.268a15.372,15.372,0,0,0,1.218,4.536,8.022,8.022,0,0,0,3.276,3.276v2.31l-4.83,2.394a11.654,11.654,0,0,0-1.071.609L222.2,237.3l-.357.21a6.677,6.677,0,0,0-.819.609,8.4,8.4,0,0,0-1.029.987,5.86,5.86,0,0,0-.819,1.239,3.213,3.213,0,0,0,.294,3.255,21.168,21.168,0,0,0,4.557,3,26.292,26.292,0,0,0,28.77-1.575,7.6,7.6,0,0,0,1.512-1.428,3.129,3.129,0,0,0,.651-1.932,3.213,3.213,0,0,0-.189-1.092,4.2,4.2,0,0,0-.5-.924Z" transform="translate(-205.397 -193.199)"/></svg>