<svg xmlns="http://www.w3.org/2000/svg" width="11.52" height="12.631" viewBox="0 0 11.52 12.631"><defs><style>.a{fill:#6c6c6c;}</style></defs><g transform="translate(-104.584 -65.29)"><path class="a" d="M115.227,65.29h-5.482a.878.878,0,0,0-.877.877v.146h-.892a.864.864,0,0,0-.806.556h-1.709a.878.878,0,0,0-.877.877v9.3a.878.878,0,0,0,.877.877h7.778a.878.878,0,0,0,.877-.877v-.7h1.111a.878.878,0,0,0,.877-.877v-9.3A.878.878,0,0,0,115.227,65.29ZM107.976,66.9h2.748a.278.278,0,1,1,0,.556h-2.748a.278.278,0,1,1,0-.556Zm5.555,10.146a.293.293,0,0,1-.292.292h-7.778a.293.293,0,0,1-.292-.292v-9.3a.293.293,0,0,1,.292-.292h1.7a.864.864,0,0,0,.816.585h2.748a.864.864,0,0,0,.816-.585h1.7a.293.293,0,0,1,.292.292v9.3Zm1.988-1.579a.293.293,0,0,1-.292.292h-1.111V67.746a.878.878,0,0,0-.877-.877H111.53a.864.864,0,0,0-.806-.556h-1.272v-.146a.293.293,0,0,1,.292-.292h5.482a.293.293,0,0,1,.292.292Z"/><path class="a" d="M245.448,334.253H240.36a.292.292,0,0,0,0,.585h5.088a.292.292,0,1,0,0-.585Z" transform="translate(-133.569 -265.16)"/><path class="a" d="M245.448,454.2H240.36a.292.292,0,0,0,0,.585h5.088a.292.292,0,1,0,0-.585Z" transform="translate(-133.569 -383.414)"/><path class="a" d="M242.9,574.152H240.36a.292.292,0,0,0,0,.585H242.9a.292.292,0,0,0,0-.585Z" transform="translate(-133.569 -501.668)"/></g></svg>