<svg xmlns="http://www.w3.org/2000/svg" width="16.995" height="16.995" viewBox="0 0 16.995 16.995"><defs><style>.a{fill:#a2a2a2;}</style></defs><path class="a" d="M138.442,129.944h-.02a8.5,8.5,0,0,0,0,16.995h.02a8.5,8.5,0,1,0,0-16.995Zm.339,5.086a12.6,12.6,0,0,0,2.623-.347,15.245,15.245,0,0,1,.437,3.423h-3.06V135.03Zm0-.682v-3.669c.915.253,1.847,1.475,2.435,3.35a11.931,11.931,0,0,1-2.435.319Zm-.678-3.677v3.681a11.813,11.813,0,0,1-2.455-.327c.6-1.887,1.532-3.117,2.455-3.354Zm0,4.359V138.1h-3.08a15.246,15.246,0,0,1,.437-3.423,12.794,12.794,0,0,0,2.643.351Zm-3.767,3.072h-3.7a7.767,7.767,0,0,1,1.769-4.616,12.354,12.354,0,0,0,2.4,1.013,16.027,16.027,0,0,0-.47,3.6Zm0,.678a15.832,15.832,0,0,0,.466,3.6,12.722,12.722,0,0,0-2.4,1.013,7.793,7.793,0,0,1-1.769-4.616Zm.686,0h3.08v3.068a12.524,12.524,0,0,0-2.643.355,15.245,15.245,0,0,1-.437-3.423Zm3.08,3.75v3.685c-.923-.241-1.859-1.467-2.455-3.354A11.545,11.545,0,0,1,138.1,142.531Zm.678,3.673v-3.677a12.009,12.009,0,0,1,2.439.323c-.592,1.879-1.52,3.1-2.439,3.354Zm0-4.355V138.78h3.06a15.24,15.24,0,0,1-.437,3.419,12.6,12.6,0,0,0-2.623-.351Zm3.742-3.068h3.726a7.777,7.777,0,0,1-1.769,4.616,12.562,12.562,0,0,0-2.423-1.021A15.761,15.761,0,0,0,142.523,138.78Zm0-.678a16.036,16.036,0,0,0-.462-3.6,12.662,12.662,0,0,0,2.418-1.017,7.769,7.769,0,0,1,1.769,4.62h-3.726Zm1.491-5.139a11.816,11.816,0,0,1-2.137.882,7.642,7.642,0,0,0-1.614-3.007,7.857,7.857,0,0,1,3.75,2.124Zm-7.419-2.116a7.557,7.557,0,0,0-1.605,2.994,11.6,11.6,0,0,1-2.116-.878A7.768,7.768,0,0,1,136.6,130.847Zm-3.726,13.069a11.726,11.726,0,0,1,2.116-.878,7.63,7.63,0,0,0,1.61,3A7.773,7.773,0,0,1,132.87,143.916Zm7.394,2.128a7.635,7.635,0,0,0,1.618-3.011,11.816,11.816,0,0,1,2.137.882,7.844,7.844,0,0,1-3.754,2.128Z" transform="translate(-129.945 -129.944)"/></svg>