<svg xmlns="http://www.w3.org/2000/svg" width="21.816" height="21.003" viewBox="0 0 21.816 21.003"><defs><style>.a{fill:#6c6c6c;}</style></defs><g transform="translate(-65 -65.9)"><path class="a" d="M84.17,82.857H67.646A2.649,2.649,0,0,1,65,80.211V68.546A2.649,2.649,0,0,1,67.646,65.9H84.17a2.649,2.649,0,0,1,2.646,2.646V80.211A2.649,2.649,0,0,1,84.17,82.857ZM67.646,67.46a1.088,1.088,0,0,0-1.087,1.087V80.211A1.088,1.088,0,0,0,67.646,81.3H84.17a1.088,1.088,0,0,0,1.087-1.087V68.546A1.088,1.088,0,0,0,84.17,67.46Z" transform="translate(0)"/><path class="a" d="M226.4,231.792h-.01a.774.774,0,0,1-.563-.253l-1.535-1.672a.78.78,0,0,1,1.148-1.055l.977,1.062,2.568-2.649a.778.778,0,0,1,1.1-.017l1.862,1.8,4.837-4.9a.781.781,0,1,1,1.111,1.1l-5.38,5.453a.779.779,0,0,1-1.1.012l-1.857-1.8-2.6,2.683A.779.779,0,0,1,226.4,231.792Z" transform="translate(-155.209 -154.125)"/><path class="a" d="M176.38,865.36h-15.6a.78.78,0,1,1,0-1.56h15.6a.78.78,0,0,1,0,1.56Z" transform="translate(-92.685 -778.457)"/></g></svg>