<svg xmlns="http://www.w3.org/2000/svg" width="26" height="26" viewBox="0 0 26 26"><defs><style>.a{fill:#545454;}</style></defs><path class="a" d="M4672-9121a12.911,12.911,0,0,1-9.192-3.807A12.915,12.915,0,0,1,4659-9134a12.917,12.917,0,0,1,3.808-9.192A12.917,12.917,0,0,1,4672-9147a12.917,12.917,0,0,1,9.191,3.808A12.917,12.917,0,0,1,4685-9134a12.919,12.919,0,0,1-3.809,9.193A12.912,12.912,0,0,1,4672-9121Zm-3.921-18a5.085,5.085,0,0,0-5.08,5.078,5.086,5.086,0,0,0,5.08,5.08,5.086,5.086,0,0,0,5.08-5.08A5.085,5.085,0,0,0,4668.08-9139Zm8.294.119c-1.415,0-2.566,2.225-2.566,4.959s1.151,4.958,2.566,4.958,2.566-2.225,2.566-4.958S4677.789-9138.879,4676.374-9138.879Zm3.953.512c-.556,0-1.008,2-1.008,4.447s.452,4.446,1.008,4.446,1.005-1.994,1.005-4.446S4680.881-9138.367,4680.327-9138.367Z" transform="translate(-4659.001 9147.001)"/></svg>