<svg xmlns="http://www.w3.org/2000/svg" width="24.5" height="18.358" viewBox="0 0 24.5 18.358"><defs><style>.a{fill:#f2b60a;stroke:#f2b60a;stroke-width:0.5px;}</style></defs><g transform="translate(-77.803 -188.865)"><path class="a" d="M93,548.928a.319.319,0,0,1-.319-.319,7.07,7.07,0,0,0-2.564-5.466.319.319,0,1,1,.407-.492,7.706,7.706,0,0,1,2.8,5.958A.319.319,0,0,1,93,548.928Zm-14.625,0a.319.319,0,0,1-.319-.319,7.688,7.688,0,0,1,2.234-5.445,7.548,7.548,0,0,1,5.4-2.257c.122,0,.247,0,.37.009a.319.319,0,1,1-.03.638c-.113-.005-.227-.008-.339-.008a7.036,7.036,0,0,0-6.993,7.063A.319.319,0,0,1,78.373,548.928Z" transform="translate(0 -342.064)"/><path class="a" d="M177.591,208.814a5.062,5.062,0,1,1,5.018-5.061A5.046,5.046,0,0,1,177.591,208.814Zm0-9.484a4.423,4.423,0,1,0,4.379,4.423A4.406,4.406,0,0,0,177.591,199.33Z" transform="translate(-91.906 -9.311)"/><path class="a" d="M700.852,575.873h-3.3a.319.319,0,0,1,0-.639h3.3a.319.319,0,0,1,0,.639Z" transform="translate(-602.053 -375.441)"/><path class="a" d="M619.591,458.072h-5.615a.319.319,0,0,1,0-.639h5.615a.319.319,0,0,1,0,.639Z" transform="translate(-520.792 -260.898)"/><path class="a" d="M619.591,340.266h-5.615a.319.319,0,0,1,0-.639h5.615a.319.319,0,0,1,0,.639Z" transform="translate(-520.792 -146.35)"/><path class="a" d="M541.471,206.972H537.2a.319.319,0,0,1,0-.639h4.275a.841.841,0,0,0,.836-.844V190.6a.841.841,0,0,0-.836-.844H531.8a.319.319,0,0,1,0-.639h9.667a1.48,1.48,0,0,1,1.474,1.483V205.49A1.48,1.48,0,0,1,541.471,206.972Z" transform="translate(-440.892)"/></g></svg>