<svg xmlns="http://www.w3.org/2000/svg" width="12.333" height="19.46" viewBox="0 0 12.333 19.46"><defs><style>.a{fill:#3fe699;}.b{fill:#2d515e;}</style></defs><g transform="translate(-204.296 0)"><path class="a" d="M386.151,238.935l-.785,5.514.2,7.278,7.719-8.576h-3.762l2.037-4.216Z" transform="translate(-177.629 -234.394)"/><path class="b" d="M206.9,19.46a.973.973,0,0,1-.967-1.1l.967-7.33h-1.622a.973.973,0,0,1-.973-1.109L205.6.837A.973.973,0,0,1,206.576,0h9.081a.973.973,0,0,1,.876,1.395l-3.088,6.389h2.212a.973.973,0,0,1,.72,1.622l-8.757,9.73A.973.973,0,0,1,206.9,19.46Zm-.5-10.379h1.609a.973.973,0,0,1,.967,1.1l-.7,5.319,5.189-5.773H211.9a.973.973,0,0,1-.876-1.395l3.088-6.389h-6.688Z" transform="translate(0 0)"/></g></svg>