<svg xmlns="http://www.w3.org/2000/svg" width="21.579" height="26.667" viewBox="0 0 21.579 26.667"><defs><style>.a{fill:#f2981a;}</style></defs><g transform="translate(543.443 674.582)"><path class="a" d="M-532.359-674.582c3.146,1.286,6.282,2.6,9.444,3.84a1.363,1.363,0,0,1,1.049,1.518c-.065,2.14-.018,4.283-.023,6.424,0,.873-.06.912-.856.591-3.054-1.23-6.11-2.454-9.154-3.707a1.844,1.844,0,0,0-1.533,0c-1.974.828-3.956,1.641-5.954,2.409a1.128,1.128,0,0,0-.851,1.242c.036,2.221.018,4.444.007,6.666,0,.276.138.687-.2.786-.321.094-.441-.324-.622-.539a12.721,12.721,0,0,1-2.392-4.77v-10.12c.267-.122.531-.253.8-.365q4.819-1.989,9.64-3.973Zm-7.832,7.1c-.084.686.193.775.788.527,1.973-.822,3.964-1.6,5.938-2.423a1.94,1.94,0,0,1,1.613-.006c1.921.809,3.859,1.576,5.8,2.348.255.1.564.379.8.1s.135-.666.063-1c-.065-.306-.363-.37-.606-.469q-3.156-1.286-6.314-2.563a1.145,1.145,0,0,0-.925-.06q-3.3,1.354-6.613,2.679A.745.745,0,0,0-540.19-667.482Z"/><path class="a" d="M-508.571-595.781A48.437,48.437,0,0,1-514.028-600a1.951,1.951,0,0,1-.692-1.611c.035-2.543.031-5.087,0-7.63a1.084,1.084,0,0,1,.8-1.2c1.552-.587,3.085-1.224,4.615-1.866a1.786,1.786,0,0,1,1.466-.009c3.1,1.269,6.195,2.532,9.308,3.758.644.254.786.553.565,1.205-.745,2.2-.726,2.207-2.905,1.332-2.236-.9-4.479-1.778-6.694-2.724a2.291,2.291,0,0,0-1.983.019c-2.269,1-1.87.363-1.91,2.849-.016.964.039,1.93-.016,2.891a1.648,1.648,0,0,0,.784,1.621,7.538,7.538,0,0,1,1.373,1.106c.544.589.971.553,1.534.026.76-.713,1.578-1.366,2.391-2.02.427-.344.347-.525-.127-.677a4.612,4.612,0,0,1-.671-.267c-.435-.219-.666-.23-.839.362s-.85.855-1.316,1.249a.345.345,0,0,1-.449-.026c-.686-.562-1.543-.978-1.4-2.134a20.785,20.785,0,0,0,.021-2.327,1.515,1.515,0,0,1,2-1.394c2.693,1.05,5.364,2.159,8.048,3.231.671.268.322.588.078.9a33.747,33.747,0,0,1-7.349,6.782c-.348.246-.68.514-1.02.772Z" transform="translate(-24.108 -52.135)"/></g></svg>