<svg xmlns="http://www.w3.org/2000/svg" width="14.88" height="14.634" viewBox="0 0 14.88 14.634"><defs><style>.a{fill:#a2a2a2;}</style></defs><g transform="translate(-63.384 -72.293)"><path class="a" d="M69.264,84.075a5.89,5.89,0,1,1,5.712-7.362h0a5.889,5.889,0,0,1-4.231,7.173A5.935,5.935,0,0,1,69.264,84.075Zm.019-10.815a4.938,4.938,0,0,0-1.238.159,4.922,4.922,0,1,0,6,3.536h0a4.927,4.927,0,0,0-4.757-3.695Z" transform="translate(0 0)"/><path class="a" d="M616.683,611.408a.722.722,0,0,1-.512-.212l-4.324-4.326a.724.724,0,0,1,1.025-1.025l4.324,4.326a.725.725,0,0,1-.512,1.237Z" transform="translate(-539.144 -524.481)"/></g></svg>