<svg xmlns="http://www.w3.org/2000/svg" width="18.784" height="18.784" viewBox="0 0 18.784 18.784"><defs><style>.a{fill:#6a3906;}.b{fill:#f5cb2b;}</style></defs><g transform="translate(-85.333 -85.333)"><path class="a" d="M94.725,104.117a9.392,9.392,0,1,1,9.392-9.392,9.419,9.419,0,0,1-9.392,9.392Zm0-17.563a8.171,8.171,0,1,0,8.171,8.171A8.177,8.177,0,0,0,94.725,86.554Z"/><path class="b" d="M207.389,207.389m-6.856,0a6.856,6.856,0,1,0,6.856-6.856A6.856,6.856,0,0,0,200.533,207.389Z" transform="translate(-112.664 -112.664)"/><path class="a" d="M332.571,336.61l-4.038-4.038,4.038-4.038,4.038,4.038Zm-2.348-4.038,2.348,2.348,2.348-2.348-2.348-2.348Z" transform="translate(-237.846 -237.846)"/></g></svg>