<svg xmlns="http://www.w3.org/2000/svg" width="26" height="26" viewBox="0 0 26 26"><defs><style>.a{fill:#545454;}</style></defs><path class="a" d="M17.251,18.963,19.384,8.908a.957.957,0,0,0-.152-.914.66.66,0,0,0-.747-.1L5.949,12.724a1.27,1.27,0,0,0-.573.363.314.314,0,0,0-.036.384.791.791,0,0,0,.464.283l3.206,1,7.443-4.686q.3-.2.464-.087.1.073-.058.218L10.838,15.64l-.232,3.308a.931.931,0,0,0,.653-.319l1.567-1.509,3.25,2.394q.929.522,1.175-.551ZM26,13a12.708,12.708,0,0,1-1.03,5.049,12.773,12.773,0,0,1-6.921,6.921,12.889,12.889,0,0,1-10.1,0A12.773,12.773,0,0,1,1.03,18.049a12.889,12.889,0,0,1,0-10.1A12.773,12.773,0,0,1,7.951,1.03a12.889,12.889,0,0,1,10.1,0A12.773,12.773,0,0,1,24.97,7.951,12.709,12.709,0,0,1,26,13Z"/></svg>