<svg xmlns="http://www.w3.org/2000/svg" width="23.46" height="21.191" viewBox="0 0 23.46 21.191"><defs><style>.a{fill:#a2a2a2;}</style></defs><path class="a" d="M70.946,116.063a.59.59,0,1,0-.59-.59A.59.59,0,0,0,70.946,116.063Zm9.39,4.5-3.885-3.883a1.958,1.958,0,0,0-2.773,0l-.173.173v1.7H73.5c0,.026.005.051.005.077a.592.592,0,0,1-.592.592.451.451,0,0,1-.1-.01v.01H65.5a1.509,1.509,0,0,0-.242-.018,1.568,1.568,0,0,0-1.568,1.571,1.4,1.4,0,0,0,.008.147V122.2a.786.786,0,0,1-.955-.121l-3.885-3.888a.785.785,0,0,1,0-1.11l3.883-3.885a.786.786,0,0,1,.955-.121v1.269a1.465,1.465,0,0,0-.008.152,1.57,1.57,0,0,0,1.568,1.571c.057,0,.111,0,.165-.008h3.373a.579.579,0,0,0,0-1.159H65.549v-.01a.665.665,0,0,1-.1.01.592.592,0,0,1-.592-.592.451.451,0,0,1,.01-.1h-.01v-1.669l-.173-.173a1.958,1.958,0,0,0-2.773,0l-3.883,3.885a1.961,1.961,0,0,0,0,2.776l3.883,3.883a1.958,1.958,0,0,0,2.773,0l.173-.173v-1.887h.01a.593.593,0,0,1,.412-.463h.342a.24.24,0,0,1,.033.01v-.01h7.467a1.568,1.568,0,0,0,1.553-1.568c0-.057,0-.111-.008-.165v-1.257a.782.782,0,0,1,.955.121L79.5,121.4a.785.785,0,0,1,0,1.11l-3.883,3.88a.782.782,0,0,1-.955.121v-.863c.005-.054.008-.108.008-.165a1.57,1.57,0,0,0-1.568-1.571H66.9a.537.537,0,0,0-.064,0,.592.592,0,1,0,0,1.184.537.537,0,0,0,.064,0h5.811v.013a.255.255,0,0,1,.041-.013h.322a.592.592,0,0,1,.433.569c0,.026,0,.052-.005.077h.005v1.313l.173.173a1.958,1.958,0,0,0,2.773,0l3.883-3.885A1.966,1.966,0,0,0,80.337,120.561Zm-2.07-6.414a10.6,10.6,0,0,0-12.21-4.678l.015.026a.593.593,0,0,0,.6,1.022,9.436,9.436,0,0,1,10.565,4.2.593.593,0,0,0,1.138-.232A.6.6,0,0,0,78.266,114.147ZM71.935,128.62a.58.58,0,0,0-.3.085l-.008-.01a9.433,9.433,0,0,1-10.634-4.452.592.592,0,0,0-1.156.18.57.57,0,0,0,.075.286l-.005,0a10.609,10.609,0,0,0,12.328,5.034l-.008-.015a.592.592,0,0,0-.288-1.11Z" transform="translate(-57.45 -109)"/></svg>