<svg xmlns="http://www.w3.org/2000/svg" width="26" height="26" viewBox="0 0 26 26"><defs><style>.a{fill:#545454;}</style></defs><path class="a" d="M26,13A13,13,0,1,0,13,26,13,13,0,0,0,26,13ZM6,17.619a5.473,5.473,0,0,0,.685.044,5.545,5.545,0,0,0,3.567-1.3A2.917,2.917,0,0,1,7.57,14.227a2.684,2.684,0,0,0,1.3-.044,3.052,3.052,0,0,1-2.3-3.023v-.039a2.749,2.749,0,0,0,1.3.4,3.221,3.221,0,0,1-.888-4.1,8.1,8.1,0,0,0,5.92,3.271,3.2,3.2,0,0,1-.074-.694A2.9,2.9,0,0,1,15.692,7a2.858,2.858,0,0,1,2.1.989,5.5,5.5,0,0,0,1.824-.7,2.943,2.943,0,0,1-1.263,1.65A5.471,5.471,0,0,0,20,8.484a5.905,5.905,0,0,1-1.434,1.541c.006.13.008.26.008.39C18.573,14.4,15.684,19,10.4,19A7.734,7.734,0,0,1,6,17.619Z"/></svg>