<svg xmlns="http://www.w3.org/2000/svg" width="33" height="33" viewBox="0 0 33 33"><defs><style>.a{fill:#f2b60a;}</style></defs><path class="a" d="M80.5,64A16.5,16.5,0,1,0,97,80.5,16.5,16.5,0,0,0,80.5,64Zm1.595,24.013a2.2,2.2,0,0,1-1.175.615c-.14.007-.276.011-.42.011s-.28,0-.42-.011a2.211,2.211,0,0,1-1.175-.615,2.131,2.131,0,0,1-.667-1.584,2.261,2.261,0,0,1,4.523,0A2.1,2.1,0,0,1,82.095,88.013Zm-.512-5.2H79.458c-.258-3.145-1.215-7.469-1.215-8.058a2.4,2.4,0,0,1,.633-1.7A2.118,2.118,0,0,1,80.5,72.36a2.14,2.14,0,0,1,1.628.681,2.411,2.411,0,0,1,.633,1.709C82.765,75.34,81.881,79.664,81.583,82.809Z" transform="translate(-64 -64)"/></svg>